<?xml version="1.0" encoding="UTF-8" standalone="no"?>
<!DOCTYPE svg PUBLIC "-//W3C//DTD SVG 1.1//EN"
 "http://www.w3.org/Graphics/SVG/1.1/DTD/svg11.dtd">
<!-- Generated by graphviz version 11.0.0 (20240428.1522)
 -->
<!-- Pages: 1 -->
<svg width="541pt" height="609pt"
 viewBox="0.00 0.00 540.62 609.00" xmlns="http://www.w3.org/2000/svg" xmlns:xlink="http://www.w3.org/1999/xlink">
<g id="graph0" class="graph" transform="scale(1 1) rotate(0) translate(4 605)">
<polygon fill="white" stroke="none" points="-4,4 -4,-605 536.62,-605 536.62,4 -4,4"/>
<!-- node98348 -->
<g id="node1" class="node">
<title>node98348</title>
<polygon fill="none" stroke="black" points="172.62,-601 118.62,-601 118.62,-565 172.62,-565 172.62,-601"/>
<text text-anchor="middle" x="145.62" y="-577.95" font-family="Times,serif" font-size="14.00">query</text>
</g>
<!-- node98352 -->
<g id="node5" class="node">
<title>node98352</title>
<polygon fill="none" stroke="black" points="291.25,-453 0,-453 0,-417 291.25,-417 291.25,-453"/>
<text text-anchor="middle" x="145.62" y="-429.95" font-family="Times,serif" font-size="14.00">(and [?e ?a ?v] [(even? ?e)] [(number? ?v) ?num])</text>
</g>
<!-- node98348&#45;&gt;node98352 -->
<g id="edge1" class="edge">
<title>node98348&#45;&gt;node98352</title>
<path fill="none" stroke="black" d="M145.03,-564.56C144.86,-558.95 144.71,-552.71 144.62,-547 144.14,-513.23 144.14,-504.77 144.62,-471 144.65,-468.95 144.69,-466.83 144.74,-464.69"/>
<polygon fill="black" stroke="black" points="148.23,-465.04 144.99,-454.96 141.23,-464.86 148.23,-465.04"/>
</g>
<!-- node98349 -->
<g id="node2" class="node">
<title>node98349</title>
<polygon fill="none" stroke="black" points="212.12,-36 79.12,-36 79.12,0 212.12,0 212.12,-36"/>
<text text-anchor="middle" x="145.62" y="-12.95" font-family="Times,serif" font-size="14.00">[(number? ?v) ?num]</text>
</g>
<!-- node98349&#45;&gt;node98352 -->
<g id="edge2" class="edge">
<title>node98349&#45;&gt;node98352</title>
<path fill="none" stroke="black" d="M142.75,-36.33C135.37,-83.12 117.01,-215.88 126.62,-326 129,-353.2 134.68,-383.83 139.21,-405.5"/>
<polygon fill="black" stroke="black" points="135.74,-406.02 141.27,-415.06 142.59,-404.55 135.74,-406.02"/>
<polygon fill="none" stroke="black" points="129.62,-277 129.62,-299 141.62,-299 141.62,-277 129.62,-277"/>
<text text-anchor="start" x="132.25" y="-282.7" font-family="Times,serif" font-size="14.00">#</text>
<polygon fill="none" stroke="black" points="143.62,-277 143.62,-299 222.62,-299 222.62,-277 143.62,-277"/>
<text text-anchor="start" x="177.12" y="-282.7" font-family="Times,serif" font-size="14.00">?a</text>
<polygon fill="none" stroke="black" points="224.62,-277 224.62,-299 242.62,-299 242.62,-277 224.62,-277"/>
<text text-anchor="start" x="227.62" y="-282.7" font-family="Times,serif" font-size="14.00">?e</text>
<polygon fill="none" stroke="black" points="244.62,-277 244.62,-299 280.62,-299 280.62,-277 244.62,-277"/>
<text text-anchor="start" x="247.25" y="-282.7" font-family="Times,serif" font-size="14.00">?num</text>
<polygon fill="none" stroke="black" points="282.62,-277 282.62,-299 333.62,-299 333.62,-277 282.62,-277"/>
<text text-anchor="start" x="301.75" y="-282.7" font-family="Times,serif" font-size="14.00">?v</text>
<polygon fill="none" stroke="black" points="129.62,-253 129.62,-275 141.62,-275 141.62,-253 129.62,-253"/>
<text text-anchor="start" x="132.25" y="-258.7" font-family="Times,serif" font-size="14.00">0</text>
<polygon fill="none" stroke="black" points="143.62,-253 143.62,-275 222.62,-275 222.62,-253 143.62,-253"/>
<text text-anchor="start" x="152" y="-258.7" font-family="Times,serif" font-size="14.00">:person/age</text>
<polygon fill="none" stroke="black" points="224.62,-253 224.62,-275 242.62,-275 242.62,-253 224.62,-253"/>
<text text-anchor="start" x="230.25" y="-258.7" font-family="Times,serif" font-size="14.00">2</text>
<polygon fill="none" stroke="black" points="244.62,-253 244.62,-275 280.62,-275 280.62,-253 244.62,-253"/>
<text text-anchor="start" x="252.12" y="-258.7" font-family="Times,serif" font-size="14.00">true</text>
<polygon fill="none" stroke="black" points="282.62,-253 282.62,-275 333.62,-275 333.62,-253 282.62,-253"/>
<text text-anchor="start" x="301.38" y="-258.7" font-family="Times,serif" font-size="14.00">35</text>
<polygon fill="none" stroke="black" points="129.62,-229 129.62,-251 141.62,-251 141.62,-229 129.62,-229"/>
<text text-anchor="start" x="132.25" y="-234.7" font-family="Times,serif" font-size="14.00">1</text>
<polygon fill="none" stroke="black" points="143.62,-229 143.62,-251 222.62,-251 222.62,-229 143.62,-229"/>
<text text-anchor="start" x="146.38" y="-234.7" font-family="Times,serif" font-size="14.00">:person/name</text>
<polygon fill="none" stroke="black" points="224.62,-229 224.62,-251 242.62,-251 242.62,-229 224.62,-229"/>
<text text-anchor="start" x="230.25" y="-234.7" font-family="Times,serif" font-size="14.00">2</text>
<polygon fill="none" stroke="black" points="244.62,-229 244.62,-251 280.62,-251 280.62,-229 244.62,-229"/>
<text text-anchor="start" x="249.88" y="-234.7" font-family="Times,serif" font-size="14.00">false</text>
<polygon fill="none" stroke="black" points="282.62,-229 282.62,-251 333.62,-251 333.62,-229 282.62,-229"/>
<text text-anchor="start" x="285.62" y="-234.7" font-family="Times,serif" font-size="14.00">&quot;David&quot;</text>
<polygon fill="none" stroke="black" points="126.62,-226 126.62,-302 336.62,-302 336.62,-226 126.62,-226"/>
</g>
<!-- node98350 -->
<g id="node3" class="node">
<title>node98350</title>
<polygon fill="none" stroke="black" points="312.25,-380 243,-380 243,-344 312.25,-344 312.25,-380"/>
<text text-anchor="middle" x="277.62" y="-356.95" font-family="Times,serif" font-size="14.00">[?e ?a ?v]</text>
</g>
<!-- node98351 -->
<g id="node4" class="node">
<title>node98351</title>
<polygon fill="none" stroke="black" points="321.25,-184 240,-184 240,-148 321.25,-148 321.25,-184"/>
<text text-anchor="middle" x="280.62" y="-160.95" font-family="Times,serif" font-size="14.00">[(even? ?e)]</text>
</g>
<!-- node98350&#45;&gt;node98351 -->
<g id="edge3" class="edge">
<title>node98350&#45;&gt;node98351</title>
<path fill="none" stroke="black" d="M312.56,-349.7C323.5,-344.33 334.34,-336.68 340.62,-326 368.57,-278.5 368.07,-249.79 340.62,-202 338.06,-197.53 334.67,-193.57 330.81,-190.08"/>
<polygon fill="black" stroke="black" points="333.03,-187.37 322.95,-184.1 328.79,-192.94 333.03,-187.37"/>
<polygon fill="none" stroke="black" points="363.62,-301 363.62,-323 375.62,-323 375.62,-301 363.62,-301"/>
<text text-anchor="start" x="366.25" y="-306.7" font-family="Times,serif" font-size="14.00">#</text>
<polygon fill="none" stroke="black" points="377.62,-301 377.62,-323 456.62,-323 456.62,-301 377.62,-301"/>
<text text-anchor="start" x="411.12" y="-306.7" font-family="Times,serif" font-size="14.00">?a</text>
<polygon fill="none" stroke="black" points="458.62,-301 458.62,-323 476.62,-323 476.62,-301 458.62,-301"/>
<text text-anchor="start" x="461.62" y="-306.7" font-family="Times,serif" font-size="14.00">?e</text>
<polygon fill="none" stroke="black" points="478.62,-301 478.62,-323 529.62,-323 529.62,-301 478.62,-301"/>
<text text-anchor="start" x="497.75" y="-306.7" font-family="Times,serif" font-size="14.00">?v</text>
<polygon fill="none" stroke="black" points="363.62,-277 363.62,-299 375.62,-299 375.62,-277 363.62,-277"/>
<text text-anchor="start" x="366.25" y="-282.7" font-family="Times,serif" font-size="14.00">0</text>
<polygon fill="none" stroke="black" points="377.62,-277 377.62,-299 456.62,-299 456.62,-277 377.62,-277"/>
<text text-anchor="start" x="380.38" y="-282.7" font-family="Times,serif" font-size="14.00">:person/name</text>
<polygon fill="none" stroke="black" points="458.62,-277 458.62,-299 476.62,-299 476.62,-277 458.62,-277"/>
<text text-anchor="start" x="464.25" y="-282.7" font-family="Times,serif" font-size="14.00">1</text>
<polygon fill="none" stroke="black" points="478.62,-277 478.62,-299 529.62,-299 529.62,-277 478.62,-277"/>
<text text-anchor="start" x="486.12" y="-282.7" font-family="Times,serif" font-size="14.00">&quot;Paul&quot;</text>
<polygon fill="none" stroke="black" points="363.62,-253 363.62,-275 375.62,-275 375.62,-253 363.62,-253"/>
<text text-anchor="start" x="366.25" y="-258.7" font-family="Times,serif" font-size="14.00">1</text>
<polygon fill="none" stroke="black" points="377.62,-253 377.62,-275 456.62,-275 456.62,-253 377.62,-253"/>
<text text-anchor="start" x="386" y="-258.7" font-family="Times,serif" font-size="14.00">:person/age</text>
<polygon fill="none" stroke="black" points="458.62,-253 458.62,-275 476.62,-275 476.62,-253 458.62,-253"/>
<text text-anchor="start" x="464.25" y="-258.7" font-family="Times,serif" font-size="14.00">2</text>
<polygon fill="none" stroke="black" points="478.62,-253 478.62,-275 529.62,-275 529.62,-253 478.62,-253"/>
<text text-anchor="start" x="497.38" y="-258.7" font-family="Times,serif" font-size="14.00">35</text>
<polygon fill="none" stroke="black" points="363.62,-229 363.62,-251 375.62,-251 375.62,-229 363.62,-229"/>
<text text-anchor="start" x="366.25" y="-234.7" font-family="Times,serif" font-size="14.00">2</text>
<polygon fill="none" stroke="black" points="377.62,-229 377.62,-251 456.62,-251 456.62,-229 377.62,-229"/>
<text text-anchor="start" x="380.38" y="-234.7" font-family="Times,serif" font-size="14.00">:person/name</text>
<polygon fill="none" stroke="black" points="458.62,-229 458.62,-251 476.62,-251 476.62,-229 458.62,-229"/>
<text text-anchor="start" x="464.25" y="-234.7" font-family="Times,serif" font-size="14.00">2</text>
<polygon fill="none" stroke="black" points="478.62,-229 478.62,-251 529.62,-251 529.62,-229 478.62,-229"/>
<text text-anchor="start" x="481.62" y="-234.7" font-family="Times,serif" font-size="14.00">&quot;David&quot;</text>
<polygon fill="none" stroke="black" points="363.62,-205 363.62,-227 375.62,-227 375.62,-205 363.62,-205"/>
<text text-anchor="start" x="366.25" y="-210.7" font-family="Times,serif" font-size="14.00">3</text>
<polygon fill="none" stroke="black" points="377.62,-205 377.62,-227 456.62,-227 456.62,-205 377.62,-205"/>
<text text-anchor="start" x="386" y="-210.7" font-family="Times,serif" font-size="14.00">:person/age</text>
<polygon fill="none" stroke="black" points="458.62,-205 458.62,-227 476.62,-227 476.62,-205 458.62,-205"/>
<text text-anchor="start" x="464.25" y="-210.7" font-family="Times,serif" font-size="14.00">1</text>
<polygon fill="none" stroke="black" points="478.62,-205 478.62,-227 529.62,-227 529.62,-205 478.62,-205"/>
<text text-anchor="start" x="497.38" y="-210.7" font-family="Times,serif" font-size="14.00">32</text>
<polygon fill="none" stroke="black" points="360.62,-202 360.62,-326 532.62,-326 532.62,-202 360.62,-202"/>
</g>
<!-- node98351&#45;&gt;node98349 -->
<g id="edge4" class="edge">
<title>node98351&#45;&gt;node98349</title>
<path fill="none" stroke="black" d="M264.61,-147.68C240.96,-122.1 196.56,-74.08 169.19,-44.49"/>
<polygon fill="black" stroke="black" points="172.01,-42.38 162.65,-37.41 166.87,-47.13 172.01,-42.38"/>
<polygon fill="none" stroke="black" points="250.62,-105 250.62,-127 262.62,-127 262.62,-105 250.62,-105"/>
<text text-anchor="start" x="253.25" y="-110.7" font-family="Times,serif" font-size="14.00">#</text>
<polygon fill="none" stroke="black" points="264.62,-105 264.62,-127 343.62,-127 343.62,-105 264.62,-105"/>
<text text-anchor="start" x="298.12" y="-110.7" font-family="Times,serif" font-size="14.00">?a</text>
<polygon fill="none" stroke="black" points="345.62,-105 345.62,-127 363.62,-127 363.62,-105 345.62,-105"/>
<text text-anchor="start" x="348.62" y="-110.7" font-family="Times,serif" font-size="14.00">?e</text>
<polygon fill="none" stroke="black" points="365.62,-105 365.62,-127 416.62,-127 416.62,-105 365.62,-105"/>
<text text-anchor="start" x="384.75" y="-110.7" font-family="Times,serif" font-size="14.00">?v</text>
<polygon fill="none" stroke="black" points="250.62,-81 250.62,-103 262.62,-103 262.62,-81 250.62,-81"/>
<text text-anchor="start" x="253.25" y="-86.7" font-family="Times,serif" font-size="14.00">0</text>
<polygon fill="none" stroke="black" points="264.62,-81 264.62,-103 343.62,-103 343.62,-81 264.62,-81"/>
<text text-anchor="start" x="273" y="-86.7" font-family="Times,serif" font-size="14.00">:person/age</text>
<polygon fill="none" stroke="black" points="345.62,-81 345.62,-103 363.62,-103 363.62,-81 345.62,-81"/>
<text text-anchor="start" x="351.25" y="-86.7" font-family="Times,serif" font-size="14.00">2</text>
<polygon fill="none" stroke="black" points="365.62,-81 365.62,-103 416.62,-103 416.62,-81 365.62,-81"/>
<text text-anchor="start" x="384.38" y="-86.7" font-family="Times,serif" font-size="14.00">35</text>
<polygon fill="none" stroke="black" points="250.62,-57 250.62,-79 262.62,-79 262.62,-57 250.62,-57"/>
<text text-anchor="start" x="253.25" y="-62.7" font-family="Times,serif" font-size="14.00">1</text>
<polygon fill="none" stroke="black" points="264.62,-57 264.62,-79 343.62,-79 343.62,-57 264.62,-57"/>
<text text-anchor="start" x="267.38" y="-62.7" font-family="Times,serif" font-size="14.00">:person/name</text>
<polygon fill="none" stroke="black" points="345.62,-57 345.62,-79 363.62,-79 363.62,-57 345.62,-57"/>
<text text-anchor="start" x="351.25" y="-62.7" font-family="Times,serif" font-size="14.00">2</text>
<polygon fill="none" stroke="black" points="365.62,-57 365.62,-79 416.62,-79 416.62,-57 365.62,-57"/>
<text text-anchor="start" x="368.62" y="-62.7" font-family="Times,serif" font-size="14.00">&quot;David&quot;</text>
<polygon fill="none" stroke="black" points="247.62,-54 247.62,-130 419.62,-130 419.62,-54 247.62,-54"/>
</g>
<!-- node98352&#45;&gt;node98348 -->
<g id="edge6" class="edge">
<title>node98352&#45;&gt;node98348</title>
<path fill="none" stroke="black" d="M145.62,-453.3C145.62,-477.98 145.62,-523.61 145.62,-553.37"/>
<polygon fill="black" stroke="black" points="142.13,-553.16 145.63,-563.17 149.13,-553.17 142.13,-553.16"/>
<polygon fill="none" stroke="black" points="148.62,-522 148.62,-544 160.62,-544 160.62,-522 148.62,-522"/>
<text text-anchor="start" x="151.25" y="-527.7" font-family="Times,serif" font-size="14.00">#</text>
<polygon fill="none" stroke="black" points="162.62,-522 162.62,-544 241.62,-544 241.62,-522 162.62,-522"/>
<text text-anchor="start" x="196.12" y="-527.7" font-family="Times,serif" font-size="14.00">?a</text>
<polygon fill="none" stroke="black" points="243.62,-522 243.62,-544 261.62,-544 261.62,-522 243.62,-522"/>
<text text-anchor="start" x="246.62" y="-527.7" font-family="Times,serif" font-size="14.00">?e</text>
<polygon fill="none" stroke="black" points="263.62,-522 263.62,-544 299.62,-544 299.62,-522 263.62,-522"/>
<text text-anchor="start" x="266.25" y="-527.7" font-family="Times,serif" font-size="14.00">?num</text>
<polygon fill="none" stroke="black" points="301.62,-522 301.62,-544 352.62,-544 352.62,-522 301.62,-522"/>
<text text-anchor="start" x="320.75" y="-527.7" font-family="Times,serif" font-size="14.00">?v</text>
<polygon fill="none" stroke="black" points="148.62,-498 148.62,-520 160.62,-520 160.62,-498 148.62,-498"/>
<text text-anchor="start" x="151.25" y="-503.7" font-family="Times,serif" font-size="14.00">0</text>
<polygon fill="none" stroke="black" points="162.62,-498 162.62,-520 241.62,-520 241.62,-498 162.62,-498"/>
<text text-anchor="start" x="171" y="-503.7" font-family="Times,serif" font-size="14.00">:person/age</text>
<polygon fill="none" stroke="black" points="243.62,-498 243.62,-520 261.62,-520 261.62,-498 243.62,-498"/>
<text text-anchor="start" x="249.25" y="-503.7" font-family="Times,serif" font-size="14.00">2</text>
<polygon fill="none" stroke="black" points="263.62,-498 263.62,-520 299.62,-520 299.62,-498 263.62,-498"/>
<text text-anchor="start" x="271.12" y="-503.7" font-family="Times,serif" font-size="14.00">true</text>
<polygon fill="none" stroke="black" points="301.62,-498 301.62,-520 352.62,-520 352.62,-498 301.62,-498"/>
<text text-anchor="start" x="320.38" y="-503.7" font-family="Times,serif" font-size="14.00">35</text>
<polygon fill="none" stroke="black" points="148.62,-474 148.62,-496 160.62,-496 160.62,-474 148.62,-474"/>
<text text-anchor="start" x="151.25" y="-479.7" font-family="Times,serif" font-size="14.00">1</text>
<polygon fill="none" stroke="black" points="162.62,-474 162.62,-496 241.62,-496 241.62,-474 162.62,-474"/>
<text text-anchor="start" x="165.38" y="-479.7" font-family="Times,serif" font-size="14.00">:person/name</text>
<polygon fill="none" stroke="black" points="243.62,-474 243.62,-496 261.62,-496 261.62,-474 243.62,-474"/>
<text text-anchor="start" x="249.25" y="-479.7" font-family="Times,serif" font-size="14.00">2</text>
<polygon fill="none" stroke="black" points="263.62,-474 263.62,-496 299.62,-496 299.62,-474 263.62,-474"/>
<text text-anchor="start" x="268.88" y="-479.7" font-family="Times,serif" font-size="14.00">false</text>
<polygon fill="none" stroke="black" points="301.62,-474 301.62,-496 352.62,-496 352.62,-474 301.62,-474"/>
<text text-anchor="start" x="304.62" y="-479.7" font-family="Times,serif" font-size="14.00">&quot;David&quot;</text>
<polygon fill="none" stroke="black" points="145.62,-471 145.62,-547 355.62,-547 355.62,-471 145.62,-471"/>
</g>
<!-- node98352&#45;&gt;node98350 -->
<g id="edge5" class="edge">
<title>node98352&#45;&gt;node98350</title>
<path fill="none" stroke="black" d="M177.92,-416.63C195.17,-407.35 216.64,-395.8 235.22,-385.81"/>
<polygon fill="black" stroke="black" points="236.73,-388.97 243.88,-381.15 233.41,-382.81 236.73,-388.97"/>
</g>
</g>
</svg>
